<svg width="300" height="90" style="
    /* display: none; */
"><defs id="SvgjsDefs1027"></defs><g id="SvgjsG1028" featurekey="root" fill="#07ede9"></g><g id="SvgjsG1029" featurekey="symbol1" fill="#000000" transform="matrix(0.7777777777777778,0,0,0.7777777777777778,6.111111111111111,6.111111111111111)"><g xmlns="http://www.w3.org/2000/svg" enable-background="new    "><g><g><path fill-rule="evenodd" clip-rule="evenodd" d="M17.369,39C19.788,22.594,33.921,10,51,10c17.078,0,31.212,12.594,33.631,29     h5.039C87.214,19.824,70.844,5,51,5S14.786,19.824,12.33,39H17.369z"></path></g></g></g><g xmlns="http://www.w3.org/2000/svg" enable-background="new    "><g><g><path fill-rule="evenodd" clip-rule="evenodd" d="M17,31c-4,0-12,8-12,16s6,16,13,16c2,0,5-3,5-5c0-3,0-24,0-24S21,31,17,31z"></path></g></g></g><g xmlns="http://www.w3.org/2000/svg" enable-background="new    "><g><g><path fill-rule="evenodd" clip-rule="evenodd" d="M84,61c0,0-1,17-14,25h-8v3h9c0,0,14-7,16-28H84z"></path></g></g></g><g xmlns="http://www.w3.org/2000/svg" enable-background="new    "><g><g><path fill-rule="evenodd" clip-rule="evenodd" d="M83,31c-4,0-6,3-6,3s0,21,0,24c0,2,3,5,5,5c7,0,13-8,13-16S87,31,83,31z"></path></g></g></g><g xmlns="http://www.w3.org/2000/svg" enable-background="new    "><g><g><ellipse fill-rule="evenodd" clip-rule="evenodd" cx="52.5" cy="87.5" rx="11.5" ry="7.5"></ellipse></g></g></g></g><g id="SvgjsG1030" featurekey="text1" fill="#000000" transform="matrix(2.7407409702078924,0,0,2.7407409702078924,97.42370333117813,-6.337774901550453)"><path d="M5.9 14.4 q1.08 0 1.99 0.5 t1.33 1.34 l0.04 0 l0 -1.6 l1.56 0 l0 9.04 q0 2.4 -1.28 3.74 t-3.82 1.38 q-1.38 0 -2.5 -0.4 t-2.1 -1.38 l1.12 -1.28 q1.5 1.62 3.48 1.62 q3.54 0 3.54 -3.76 l0 -1.22 l-0.04 0 q-0.52 0.84 -1.44 1.29 t-1.88 0.45 q-2.16 0 -3.54 -1.35 t-1.42 -3.45 q0 -2.26 1.36 -3.58 t3.6 -1.34 z M2.62 19.32 q0 1.4 0.96 2.37 t2.34 0.99 q1.52 0 2.43 -0.98 t0.91 -2.42 q0 -1.54 -0.93 -2.48 t-2.43 -0.96 q-1.42 0 -2.35 1 t-0.93 2.48 z M14.620000000000001 9.84 q0.46 0 0.8 0.33 t0.34 0.81 q0 0.5 -0.32 0.82 t-0.82 0.32 t-0.82 -0.32 t-0.32 -0.82 q0 -0.48 0.34 -0.81 t0.8 -0.33 z M15.4 14.64 l0 9.36 l-1.56 0 l0 -9.36 l1.56 0 z M20.2 8.88 l0 15.12 l-1.56 0 l0 -15.12 l1.56 0 z M25 8.88 l0 15.12 l-1.56 0 l0 -15.12 l1.56 0 z M29.02 9.84 q0.46 0 0.8 0.33 t0.34 0.81 q0 0.5 -0.32 0.82 t-0.82 0.32 t-0.82 -0.32 t-0.32 -0.82 q0 -0.48 0.34 -0.81 t0.8 -0.33 z M29.8 14.64 l0 9.36 l-1.56 0 l0 -9.36 l1.56 0 z M39.56 14.64 l0 1.2 l-5.5 6.84 l5.64 0 l0 1.32 l-7.68 0 l0 -1.22 l5.5 -6.82 l-5.26 0 l0 -1.32 l7.3 0 z M46.1 14.4 q2.22 0 3.58 1.48 l-1.24 1.1 q-0.94 -1.14 -2.36 -1.14 q-1.46 0 -2.31 0.95 t-0.85 2.53 q0 1.5 0.91 2.48 t2.25 1 q1.54 0 2.38 -1.16 l1.16 1.1 q-1.3 1.48 -3.54 1.5 q-2.14 -0.02 -3.47 -1.36 t-1.37 -3.56 q0.02 -2.24 1.4 -3.58 t3.46 -1.34 z M52.980000000000004 8.88 l0 7.06 l0.04 0 q0.42 -0.7 1.24 -1.12 t1.78 -0.42 q1.76 0 2.65 1.02 t0.89 2.72 l0 5.86 l-1.56 0 l0 -5.68 q0 -1.08 -0.5 -1.77 t-1.64 -0.71 q-1.44 0 -2.17 0.95 t-0.73 2.57 l0 4.64 l-1.56 0 l0 -15.12 l1.56 0 z M63.46 9.84 q0.46 0 0.8 0.33 t0.34 0.81 q0 0.5 -0.32 0.82 t-0.82 0.32 t-0.82 -0.32 t-0.32 -0.82 q0 -0.48 0.34 -0.81 t0.8 -0.33 z M64.24000000000001 14.64 l0 9.36 l-1.56 0 l0 -9.36 l1.56 0 z M69.04 8.88 l0 15.12 l-1.56 0 l0 -15.12 l1.56 0 z M73.84 8.88 l0 15.12 l-1.56 0 l0 -15.12 l1.56 0 z"></path></g></svg>