<?xml version="1.0" encoding="utf-8"?>
<!-- Generator: Adobe Illustrator 19.0.0, SVG Export Plug-In . SVG Version: 6.00 Build 0)  -->
<svg version="1.1" id="Layer_1" xmlns="http://www.w3.org/2000/svg" xmlns:xlink="http://www.w3.org/1999/xlink" x="0px" y="0px"
	 viewBox="0 0 161 157.1" style="enable-background:new 0 0 161 157.1;" xml:space="preserve">
<style type="text/css">
	.st0{fill:#333333;}
</style>
<path id="path18" class="st0" d="M80.5,0C36.1,0,0,36,0,80.5c0,35.6,23.1,65.8,55.1,76.4c4,0.7,5.5-1.7,5.5-3.9
	c0-1.9-0.1-8.3-0.1-15c-22.4,4.9-27.1-9.5-27.1-9.5c-3.7-9.3-8.9-11.8-8.9-11.8c-7.3-5,0.6-4.9,0.6-4.9c8.1,0.6,12.3,8.3,12.3,8.3
	c7.2,12.3,18.8,8.7,23.4,6.7c0.7-5.2,2.8-8.8,5.1-10.8c-17.9-2-36.7-8.9-36.7-39.8c0-8.8,3.1-16,8.3-21.6c-0.8-2-3.6-10.2,0.8-21.3
	c0,0,6.8-2.2,22.1,8.3c6.4-1.8,13.3-2.7,20.2-2.7c6.8,0,13.7,0.9,20.2,2.7c15.4-10.4,22.1-8.3,22.1-8.3c4.4,11.1,1.6,19.3,0.8,21.3
	c5.2,5.6,8.3,12.8,8.3,21.6c0,30.9-18.8,37.7-36.8,39.7c2.9,2.5,5.5,7.4,5.5,14.9c0,10.8-0.1,19.4-0.1,22.1c0,2.1,1.4,4.7,5.5,3.9
	c32-10.7,55-40.8,55-76.4C161,36,125,0,80.5,0"/>
<path id="path20" class="st0" d="M30.5,115.6c-0.2,0.4-0.8,0.5-1.4,0.2c-0.6-0.3-0.9-0.8-0.7-1.2c0.2-0.4,0.8-0.5,1.4-0.3
	C30.4,114.7,30.7,115.2,30.5,115.6L30.5,115.6"/>
<path id="path22" class="st0" d="M33.8,119.2c-0.4,0.4-1.1,0.2-1.6-0.4c-0.5-0.6-0.6-1.3-0.2-1.7c0.4-0.4,1.1-0.2,1.7,0.4
	C34.1,118.1,34.2,118.9,33.8,119.2L33.8,119.2"/>
<path id="path24" class="st0" d="M36.9,123.9c-0.5,0.3-1.3,0-1.8-0.7c-0.5-0.7-0.5-1.6,0-1.9c0.5-0.3,1.3,0,1.8,0.7
	C37.4,122.7,37.4,123.5,36.9,123.9L36.9,123.9"/>
<path id="path26" class="st0" d="M41.3,128.4c-0.4,0.5-1.4,0.4-2.1-0.3c-0.7-0.6-0.9-1.6-0.5-2.1c0.4-0.5,1.4-0.4,2.1,0.3
	C41.5,127,41.8,127.9,41.3,128.4L41.3,128.4"/>
<path id="path28" class="st0" d="M47.3,131c-0.2,0.6-1.1,0.9-2,0.6c-0.9-0.3-1.5-1-1.3-1.7c0.2-0.6,1.1-0.9,2-0.6
	C46.9,129.6,47.5,130.3,47.3,131L47.3,131"/>
<path id="path30" class="st0" d="M53.9,131.4c0,0.7-0.8,1.2-1.7,1.2c-1,0-1.7-0.5-1.8-1.2c0-0.7,0.8-1.2,1.7-1.2
	C53.1,130.3,53.9,130.8,53.9,131.4L53.9,131.4"/>
<path id="path32" class="st0" d="M60,130.4c0.1,0.6-0.6,1.3-1.5,1.5c-0.9,0.2-1.8-0.2-1.9-0.9c-0.1-0.7,0.6-1.3,1.5-1.5
	C59,129.4,59.9,129.7,60,130.4L60,130.4"/>
</svg>
