<?xml version="1.0" encoding="utf-8"?>
<!-- Generator: Adobe Illustrator 19.0.0, SVG Export Plug-In . SVG Version: 6.00 Build 0)  -->
<svg version="1.1"
	 id="svg2" xmlns:dc="http://purl.org/dc/elements/1.1/" xmlns:cc="http://creativecommons.org/ns#" xmlns:rdf="http://www.w3.org/1999/02/22-rdf-syntax-ns#" xmlns:svg="http://www.w3.org/2000/svg"
	 xmlns="http://www.w3.org/2000/svg" xmlns:xlink="http://www.w3.org/1999/xlink" x="0px" y="0px" viewBox="-277 373 48 48"
	 style="enable-background:new -277 373 48 48;" xml:space="preserve">
<style type="text/css">
	.st0{fill:#fdfdfd;}
</style>
<g id="g10" transform="matrix(1.3333333,0,0,-1.3333333,0,48)">
	<g id="g12" transform="scale(0.1)">
		<path id="path18" class="st0" d="M-1770.7-2744.3h-53.4v83.5c0,19.9-0.3,45.6-27.7,45.6c-27.8,0-32-21.7-32-44.1v-85h-53.3v171.8
			h51.2v-23.5h0.7c7.1,13.5,24.5,27.7,50.5,27.7c54.1,0,64.1-35.6,64.1-81.8V-2744.3z M-1997.4-2549c-17.1,0-31,13.9-31,31
			c0,17.1,13.8,31,31,31c17.1,0,30.9-13.9,30.9-31C-1966.5-2535.1-1980.3-2549-1997.4-2549z M-1970.7-2744.3h-53.4v171.8h53.4
			V-2744.3z M-1744.1-2437.5h-306.8c-14.6,0-26.6-11.6-26.6-26v-308.1c0-14.3,11.9-26,26.6-26h306.8c14.7,0,26.6,11.6,26.6,26v308.1
			C-1717.5-2449.1-1729.5-2437.5-1744.1-2437.5"/>
	</g>
</g>
</svg>
